<svg width="120" height="39" viewBox="0 0 120 39" fill="none" xmlns="http://www.w3.org/2000/svg">
<path d="M16.8732 8.84955H0.353982V14.1593H11.2094C11.9174 14.1593 12.3894 14.7493 12.3894 15.3392V24.6608H10.0295C9.32153 24.6608 8.84956 24.0708 8.84956 23.4808V16.7552H4.24779C1.88791 16.7552 0 18.6431 0 21.0029V25.7227C0 28.0826 1.88791 29.9705 4.24779 29.9705H21.1209V13.0973C21.1209 10.7375 19.233 8.84955 16.8732 8.84955Z" fill="#35B454"/>
<path d="M37.05 24.6608H34.6901C33.9822 24.6608 33.5102 24.0708 33.5102 23.4808V8.84956H28.9084C26.5486 8.84956 24.6606 10.7375 24.6606 13.0973V25.7227C24.6606 28.0826 26.5486 29.9705 28.9084 29.9705H45.7816V0H36.932L37.05 24.6608Z" fill="#35B454"/>
<path d="M61.7112 24.6608H59.3513C58.6433 24.6608 58.1713 24.0708 58.1713 23.4808V8.84955H49.3218V25.7227C49.3218 28.0826 51.2097 29.9705 53.5696 29.9705H61.7112V32.5664H49.6758V38.7021H66.3129C68.6728 38.7021 70.5607 36.8142 70.5607 34.4543V8.84955H61.7112V24.6608Z" fill="#35B454"/>
<path d="M90.9736 8.84955H73.9824V25.7227C73.9824 28.0826 75.8703 29.9705 78.2302 29.9705H94.8674V24.6608H84.0119C83.304 24.6608 82.832 24.0708 82.832 23.4808V14.1593H85.1919C85.8998 14.1593 86.3718 14.7493 86.3718 15.3392V22.0649H90.9736C93.3335 22.0649 95.2214 20.177 95.2214 17.8171V13.0973C95.2214 10.7375 93.3335 8.84955 90.9736 8.84955Z" fill="#35B454"/>
<path d="M115.634 8.84955H98.7612V29.9705H107.611V14.1593H109.971C110.679 14.1593 111.151 14.7493 111.151 15.3392V29.9705H120V13.0973C119.882 10.7375 117.994 8.84955 115.634 8.84955Z" fill="#35B454"/>
</svg>
